# xmcd CD database file
#
# Track frame offsets:
#	150
#	17085
#	29065
#	41872
#	51935
#	63860
#	76627
#	86655
#	94442
#	113547
#	127095
#	141432
#	155587
#	170434
#
# Disc length: 2489 seconds
#
# Revision: 1
# Processed by: cddbd v1.5.2PL0 Copyright (c) Steve Scherf et al.
# Submitted via: CDex 1.51
#
DISCID=bf09b70e
DTITLE=Marcos Witt - Te exaltamos
DYEAR=1992
DGENRE=Musica Cristiana
TTITLE0=Te exaltamos
TTITLE1=Tuyo es el reino
TTITLE2=Roca eterna
TTITLE3=Tú eres el rey
TTITLE4=Quién es como tú
TTITLE5=Se exalta nuestro Dios
TTITLE6=Mi ser alaba al Señor
TTITLE7=Se exalta nuestro Dios (repetición)
TTITLE8=Purifícame
TTITLE9=Renuévame
TTITLE10=Yo quiero ser como Tú
TTITLE11=Santo es tu nombre
TTITLE12=Toda la tierra
TTITLE13=En la tierra habrá
EXTD=YEAR: 1992
EXTT0=
EXTT1=
EXTT2=
EXTT3=
EXTT4=
EXTT5=
EXTT6=
EXTT7=
EXTT8=
EXTT9=
EXTT10=
EXTT11=
EXTT12=
EXTT13=
PLAYORDER=
